<?xml version="1.0" encoding="UTF-8" standalone="no"?>
<!-- Created with Inkscape (http://www.inkscape.org/) -->

<svg
   xmlns:dc="http://purl.org/dc/elements/1.1/"
   xmlns:cc="http://creativecommons.org/ns#"
   xmlns:rdf="http://www.w3.org/1999/02/22-rdf-syntax-ns#"
   xmlns:svg="http://www.w3.org/2000/svg"
   xmlns="http://www.w3.org/2000/svg"
   xmlns:sodipodi="http://sodipodi.sourceforge.net/DTD/sodipodi-0.dtd"
   xmlns:inkscape="http://www.inkscape.org/namespaces/inkscape"
   width="34.183006mm"
   height="18.958288mm"
   viewBox="0 0 34.183006 18.958288"
   version="1.1"
   id="svg4818"
   inkscape:version="0.92.4 (5da689c313, 2019-01-14)"
   sodipodi:docname="logo_GO_trazados.svg">
  <defs
     id="defs4812" />
  <sodipodi:namedview
     id="base"
     pagecolor="#ffffff"
     bordercolor="#666666"
     borderopacity="1.0"
     inkscape:pageopacity="0"
     inkscape:pageshadow="2"
     inkscape:zoom="1.75"
     inkscape:cx="206.86208"
     inkscape:cy="10.547381"
     inkscape:document-units="mm"
     inkscape:current-layer="layer1"
     showgrid="false"
     fit-margin-top="0.5"
     fit-margin-left="0.5"
     fit-margin-right="1.8"
     fit-margin-bottom="0.5"
     inkscape:window-width="1366"
     inkscape:window-height="715"
     inkscape:window-x="-8"
     inkscape:window-y="-8"
     inkscape:window-maximized="1"
     inkscape:pagecheckerboard="true"
     inkscape:showpageshadow="false"
     showborder="true" />
  <metadata
     id="metadata4815">
    <rdf:RDF>
      <cc:Work
         rdf:about="">
        <dc:format>image/svg+xml</dc:format>
        <dc:type
           rdf:resource="http://purl.org/dc/dcmitype/StillImage" />
        <dc:title></dc:title>
      </cc:Work>
    </rdf:RDF>
  </metadata>
  <g
     inkscape:label="Capa 1"
     inkscape:groupmode="layer"
     id="layer1"
     transform="translate(-3.2132577,-7.0625241)">
    <g
       aria-label="GO"
       transform="scale(0.85708362,1.1667473)"
       style="font-style:normal;font-variant:normal;font-weight:bold;font-stretch:normal;font-size:16.46409988px;line-height:1.25;font-family:Candara;-inkscape-font-specification:'Candara, Bold';font-variant-ligatures:normal;font-variant-caps:normal;font-variant-numeric:normal;font-feature-settings:normal;text-align:start;letter-spacing:0px;word-spacing:0px;writing-mode:lr-tb;text-anchor:start;fill:#003399;fill-opacity:1;stroke:none;stroke-width:0.30870187"
       id="text3717">
      <path
         d="m 20.502314,16.916482 q -1.913308,0.490386 -3.199566,0.490386 -2.765454,0 -4.196416,-1.511353 -1.422923,-1.519392 -1.422923,-3.681913 0,-2.2750687 1.551549,-3.9552429 1.559587,-1.6801743 4.317003,-1.6801743 1.294297,0 2.283107,0.2331343 l -0.26529,1.8972302 q -1.262141,-0.3296035 -2.26703,-0.3296035 -1.696252,0 -2.53232,1.0450844 -0.836067,1.0370458 -0.836067,2.5403588 0,1.535471 0.932536,2.677024 0.940576,1.141554 2.588594,1.141554 0.45823,0 1.061163,-0.09647 -0.120587,-0.892341 -0.120587,-1.752526 0,-0.868224 -0.168821,-1.953504 h 2.275068 q -0.06431,1.238023 -0.06431,2.492124 0,0.90842 0.06431,2.44389 z"
         style="font-style:normal;font-variant:normal;font-weight:bold;font-stretch:normal;font-size:16.46409988px;font-family:Candara;-inkscape-font-specification:'Candara, Bold';font-variant-ligatures:normal;font-variant-caps:normal;font-variant-numeric:normal;font-feature-settings:normal;text-align:start;writing-mode:lr-tb;text-anchor:start;fill:#003399;stroke-width:0.30870187"
         id="path3722" />
      <path
         d="m 32.142948,11.763412 q 0,2.468007 -1.511353,4.091907 -1.511353,1.623901 -3.738187,1.623901 -2.122325,0 -3.553287,-1.487236 -1.430962,-1.495275 -1.430962,-3.79446 0,-2.4680076 1.511353,-4.091908 1.511353,-1.6239005 3.738187,-1.6239005 2.122325,0 3.553287,1.4872356 1.430962,1.4872356 1.430962,3.7944609 z m -2.218795,0.233134 q 0,-1.680174 -0.860185,-2.7252589 -0.860185,-1.0450845 -2.122325,-1.0450845 -1.17371,0 -1.9937,1.0531236 -0.819989,1.0531238 -0.819989,2.6609458 0,1.672135 0.860185,2.725259 0.868224,1.045084 2.122325,1.045084 1.173711,0 1.9937,-1.053123 0.819989,-1.061163 0.819989,-2.660946 z"
         style="font-style:normal;font-variant:normal;font-weight:bold;font-stretch:normal;font-size:16.46409988px;font-family:Candara;-inkscape-font-specification:'Candara, Bold';font-variant-ligatures:normal;font-variant-caps:normal;font-variant-numeric:normal;font-feature-settings:normal;text-align:start;writing-mode:lr-tb;text-anchor:start;fill:#003399;stroke-width:0.30870187"
         id="path3724" />
    </g>
    <g
       aria-label="Germán Oliva"
       transform="scale(1.1032907,0.90637944)"
       style="font-style:normal;font-variant:normal;font-weight:bold;font-stretch:normal;font-size:6.81364393px;line-height:1.25;font-family:Gabriola;-inkscape-font-specification:'Gabriola Bold';font-variant-ligatures:normal;font-variant-caps:normal;font-variant-numeric:normal;font-feature-settings:normal;text-align:start;letter-spacing:0px;word-spacing:0px;writing-mode:lr-tb;text-anchor:start;fill:#003399;fill-opacity:1;stroke:none;stroke-width:0.39737996"
       id="text3717-2">
      <path
         d="m 5.3152275,24.15286 q 0.2245708,0 0.4125449,0.03826 0.1896375,0.03826 0.3260435,0.09648 0.136406,0.05656 0.2129264,0.121435 0.07652,0.06488 0.07652,0.119771 0,0.114781 -0.00998,0.297764 -0.00832,0.182984 -0.021625,0.442488 l -0.1447234,-0.0033 q 0.00166,-0.02329 0.00166,-0.04491 0.00166,-0.02163 0.00166,-0.04491 -0.00166,-0.114781 -0.024952,-0.219581 -0.023289,-0.106463 -0.088165,-0.197955 -0.068203,-0.09482 -0.1630218,-0.166348 -0.093155,-0.07153 -0.2062724,-0.119772 -0.1114537,-0.0499 -0.2395422,-0.07319 -0.1280885,-0.02495 -0.262831,-0.02495 -0.2328882,0 -0.4225257,0.07153 -0.1896376,0.06987 -0.3393514,0.196291 -0.1497139,0.124762 -0.2595041,0.296101 -0.1097901,0.169676 -0.1829836,0.370958 -0.07153,0.199618 -0.1064631,0.420862 -0.034933,0.221244 -0.034933,0.445814 0,0.311073 0.051568,0.563923 0.051568,0.251186 0.1447234,0.447478 0.093155,0.196291 0.2212438,0.339351 0.129752,0.141397 0.2844564,0.234552 0.1563678,0.09149 0.3326974,0.136406 0.1779932,0.04325 0.3659672,0.04325 0.1497139,0 0.2528501,-0.01996 0.1031362,-0.02163 0.1680122,-0.05656 0.064876,-0.0366 0.096482,-0.08484 0.03327,-0.0499 0.039924,-0.1048 0.013308,-0.09981 0.016635,-0.21958 0.00499,-0.121434 0.00499,-0.237879 V 27.06729 q 0,-0.123098 -0.018298,-0.191301 -0.016635,-0.06987 -0.063213,-0.103137 -0.044914,-0.03493 -0.126425,-0.04159 -0.081511,-0.0083 -0.2095994,-0.0083 H 5.320218 q -0.021625,0 -0.049905,0.0017 -0.028279,0 -0.069866,0 l -0.011644,-0.163022 q 0.026616,0.0017 0.048241,0.0017 0.021625,0 0.03826,0 h 0.07153 q 0.1097902,0 0.2328882,-0.0017 0.1230981,-0.0017 0.2295613,-0.0033 0.1081266,-0.0033 0.1863105,-0.005 0.078184,-0.0017 0.098146,-0.0017 0.089828,0 0.1280885,0.04491 0.039924,0.04491 0.039924,0.154704 0,0.0682 -0.00499,0.171339 -0.00333,0.103136 -0.00832,0.231225 -0.00499,0.126425 -0.011644,0.272812 -0.00665,0.146387 -0.011644,0.299428 -0.00166,0.05989 -0.00832,0.101472 -0.00665,0.03992 -0.023289,0.0682 -0.014971,0.02828 -0.041587,0.0499 -0.026616,0.01996 -0.068203,0.03992 -0.048241,0.02495 -0.136406,0.0549 -0.088165,0.02828 -0.2062724,0.05323 -0.1164441,0.02662 -0.2561771,0.04325 -0.1397329,0.01664 -0.2911102,0.01664 -0.2062725,0 -0.4225258,-0.03493 -0.2145899,-0.03493 -0.4175353,-0.118108 -0.2029455,-0.08317 -0.3842656,-0.21958 -0.1796566,-0.13807 -0.3143991,-0.342679 -0.133079,-0.206272 -0.2112629,-0.484075 -0.078184,-0.279465 -0.078184,-0.645433 0,-0.259504 0.053232,-0.520671 0.054895,-0.261168 0.1630218,-0.50071 0.1081267,-0.239542 0.2694849,-0.445814 0.1630218,-0.207936 0.3792751,-0.360977 0.2162534,-0.153041 0.4874018,-0.239542 0.2711484,-0.08817 0.5971919,-0.08817 z"
         style="font-style:normal;font-variant:normal;font-weight:bold;font-stretch:normal;font-size:6.81364393px;font-family:Gabriola;-inkscape-font-specification:'Gabriola Bold';font-variant-ligatures:normal;font-variant-caps:normal;font-variant-numeric:normal;font-feature-settings:normal;text-align:start;writing-mode:lr-tb;text-anchor:start;fill:#003399;stroke-width:0.39737996"
         id="path3727" />
      <path
         d="m 8.4608819,27.549701 q 0.00998,0.005 0.024952,0.01497 0.016635,0.0083 0.029943,0.01996 0.013308,0.01 0.023289,0.02329 0.00998,0.01164 0.00998,0.02329 0,0.0067 -0.00499,0.01331 -0.093155,0.129752 -0.201282,0.226234 -0.1064632,0.09482 -0.2229073,0.159695 -0.1147806,0.06321 -0.2345517,0.09315 -0.1197711,0.03161 -0.2362152,0.03161 -0.1996185,0 -0.3659672,-0.08151 Q 7.1167842,27.992189 6.9970131,27.850792 6.877242,27.709396 6.809039,27.519758 q -0.06654,-0.191301 -0.06654,-0.409218 0,-0.177993 0.03826,-0.355986 0.039924,-0.177993 0.1131171,-0.339351 0.074857,-0.161359 0.1813201,-0.299428 0.1064632,-0.139733 0.2412057,-0.241206 0.1364059,-0.103136 0.2977642,-0.161358 0.1630217,-0.05822 0.3493323,-0.05822 0.1230981,0 0.2345517,0.03327 0.1114537,0.03327 0.194628,0.09648 0.084838,0.06155 0.1347425,0.153041 0.049905,0.09149 0.049905,0.207936 0,0.169675 -0.1114536,0.2961 -0.1097902,0.126425 -0.3044182,0.21459 -0.194628,0.08817 -0.4591225,0.14306 -0.262831,0.05323 -0.5689126,0.07985 v 0.02828 q 0,0.212926 0.053232,0.389256 0.054895,0.17633 0.1497138,0.302755 0.094819,0.124761 0.2229073,0.194628 0.1280885,0.06987 0.2761389,0.06987 0.1497139,0 0.3060817,-0.07319 0.1580312,-0.07486 0.3193895,-0.241206 z m -0.3127356,-1.33578 q 0,-0.07652 -0.026616,-0.14306 -0.024952,-0.06654 -0.07153,-0.114781 -0.044914,-0.0499 -0.1081267,-0.07818 -0.063212,-0.02828 -0.136406,-0.02828 -0.1081266,0 -0.1962915,0.03826 -0.088165,0.03826 -0.1580313,0.1048 -0.069866,0.06488 -0.123098,0.153041 -0.053232,0.0865 -0.091492,0.184647 -0.036597,0.09815 -0.059886,0.201282 -0.023289,0.103136 -0.03327,0.201282 0.2362152,-0.01663 0.4225258,-0.05656 0.187974,-0.04159 0.3160625,-0.1048 0.129752,-0.06488 0.197955,-0.15304 0.068203,-0.08983 0.068203,-0.204609 z"
         style="font-style:normal;font-variant:normal;font-weight:bold;font-stretch:normal;font-size:6.81364393px;font-family:Gabriola;-inkscape-font-specification:'Gabriola Bold';font-variant-ligatures:normal;font-variant-caps:normal;font-variant-numeric:normal;font-feature-settings:normal;text-align:start;writing-mode:lr-tb;text-anchor:start;fill:#003399;stroke-width:0.39737996"
         id="path3729" />
      <path
         d="m 9.1279402,28.108633 -0.026616,-0.0017 q 0.013308,-0.158031 0.024952,-0.344342 0.011644,-0.18631 0.021625,-0.377611 0.00998,-0.192965 0.016635,-0.380939 0.00832,-0.189637 0.013308,-0.352659 0.00665,-0.164685 0.00832,-0.294437 0.00333,-0.129752 0.00333,-0.204609 0,-0.06155 -0.00499,-0.106464 -0.00499,-0.04491 -0.023289,-0.07486 -0.016635,-0.02994 -0.049905,-0.04325 -0.03327,-0.01497 -0.089828,-0.01497 -0.028279,0 -0.058222,0.0033 -0.029943,0.0033 -0.06654,0.01 -0.036597,0.0067 -0.083174,0.0183 -0.044914,0.01 -0.1047997,0.02495 l -0.024952,-0.119771 q 0.2761389,-0.09981 0.447478,-0.139733 0.1713392,-0.04159 0.2312248,-0.04159 0.1097901,0 0.1563678,0.06488 0.048241,0.06321 0.048241,0.189637 0,0.01165 -0.00333,0.0682 -0.00333,0.05656 -0.00998,0.148051 -0.00499,0.08983 -0.013308,0.209599 -0.00832,0.119771 -0.019962,0.257841 -0.00998,0.136406 -0.023289,0.286119 -0.013308,0.148051 -0.028279,0.296101 l 0.016635,0.0017 q 0.079847,-0.326044 0.1796567,-0.607173 0.1014727,-0.282793 0.2262342,-0.490729 0.1264252,-0.207936 0.2761392,-0.326043 0.151377,-0.119772 0.331034,-0.119772 0.06321,0 0.118107,0.01996 0.0549,0.01996 0.09482,0.05656 0.03992,0.03493 0.06321,0.08484 0.02329,0.04824 0.02329,0.106463 0,0.07486 -0.03327,0.144723 -0.03161,0.0682 -0.101473,0.121435 h -0.01331 q -0.06987,-0.05822 -0.133079,-0.08317 -0.06155,-0.02662 -0.131415,-0.02662 -0.07486,0 -0.144724,0.02828 -0.06987,0.02828 -0.128088,0.08151 -0.09482,0.0865 -0.17633,0.229561 -0.081511,0.141397 -0.1497139,0.314399 -0.066539,0.173003 -0.1214345,0.364304 -0.053232,0.189638 -0.093155,0.370958 -0.03826,0.179656 -0.063213,0.339351 -0.023289,0.158031 -0.03327,0.266158 z"
         style="font-style:normal;font-variant:normal;font-weight:bold;font-stretch:normal;font-size:6.81364393px;font-family:Gabriola;-inkscape-font-specification:'Gabriola Bold';font-variant-ligatures:normal;font-variant-caps:normal;font-variant-numeric:normal;font-feature-settings:normal;text-align:start;writing-mode:lr-tb;text-anchor:start;fill:#003399;stroke-width:0.39737996"
         id="path3731" />
      <path
         d="m 10.981065,28.106969 q 0.01165,-0.158031 0.02163,-0.346005 0.01164,-0.189638 0.01996,-0.392583 0.01,-0.202946 0.01663,-0.412545 0.0083,-0.211263 0.01331,-0.412545 0.0067,-0.201282 0.01,-0.385929 0.005,-0.18631 0.0067,-0.341015 0,-0.0499 0.02163,-0.08151 0.02163,-0.03161 0.05323,-0.0499 0.03161,-0.0183 0.0682,-0.02495 0.0366,-0.0067 0.06654,-0.0067 0.06321,0 0.114781,0.01497 0.05157,0.01331 0.09981,0.0366 -0.02329,0.129752 -0.04159,0.299427 -0.0183,0.169676 -0.0366,0.360977 -0.01663,0.191301 -0.03327,0.39591 -0.01497,0.204609 -0.03327,0.402564 l 0.01,0.0017 q 0.116444,-0.422525 0.247859,-0.708645 0.131416,-0.287784 0.267822,-0.464113 0.136406,-0.17633 0.274475,-0.251187 0.13807,-0.07652 0.267822,-0.07652 0.11478,0 0.194628,0.05656 0.07985,0.05656 0.129752,0.148051 0.0499,0.09149 0.07319,0.207936 0.02329,0.11478 0.02329,0.234551 0,0.1048 -0.0067,0.222908 -0.0067,0.116444 -0.01664,0.231224 -0.01,0.113118 -0.02163,0.216254 -0.01,0.101473 -0.0183,0.177993 l 0.01,0.0017 q 0.116445,-0.429179 0.24786,-0.718626 0.133079,-0.29111 0.269485,-0.46744 0.138069,-0.17633 0.276139,-0.251187 0.138069,-0.07652 0.267821,-0.07652 0.08318,0 0.161359,0.03493 0.07818,0.03493 0.138069,0.113117 0.06155,0.07652 0.09815,0.197955 0.0366,0.121435 0.0366,0.292774 0,0.04824 -0.0067,0.133079 -0.005,0.08317 -0.01331,0.186311 -0.0083,0.103136 -0.01996,0.21958 -0.01,0.114781 -0.0183,0.226234 -0.0083,0.111454 -0.01497,0.212927 -0.005,0.09981 -0.005,0.173002 0,0.129752 0.01,0.211263 0.01164,0.08151 0.0366,0.129752 0.02495,0.04658 0.06654,0.06488 0.04159,0.01663 0.101472,0.01663 0.0865,0 0.179657,-0.02329 0.09316,-0.02495 0.187974,-0.0682 l 0.03161,0.0865 q -0.05988,0.04824 -0.151377,0.09815 -0.09149,0.0499 -0.192964,0.09149 -0.09981,0.04159 -0.199619,0.06654 -0.09981,0.02661 -0.17633,0.02661 -0.08983,0 -0.141396,-0.04824 -0.05157,-0.04824 -0.07818,-0.131415 -0.02495,-0.08318 -0.03327,-0.194628 -0.0067,-0.111454 -0.0067,-0.239542 0,-0.154705 0.01,-0.32438 0.01164,-0.169676 0.02495,-0.322717 0.01331,-0.153041 0.02329,-0.276139 0.01164,-0.124761 0.01164,-0.187974 0,-0.18132 -0.06488,-0.271148 -0.06321,-0.09149 -0.173003,-0.09149 -0.08484,0 -0.18132,0.08151 -0.09482,0.07985 -0.191301,0.221244 -0.09482,0.141396 -0.184647,0.334361 -0.08817,0.191301 -0.159695,0.415871 -0.07153,0.224571 -0.121434,0.470767 -0.04824,0.244533 -0.06321,0.490729 l -0.347669,0.04325 -0.02662,-0.0017 q 0.0183,-0.349332 0.03327,-0.618817 0.01663,-0.269485 0.02828,-0.470767 0.01331,-0.201282 0.01996,-0.341015 0.0083,-0.139733 0.0083,-0.231225 0,-0.18631 -0.06488,-0.281129 -0.06321,-0.09482 -0.163022,-0.09482 -0.08817,0 -0.186311,0.07985 -0.09648,0.07818 -0.191301,0.217916 -0.09482,0.139733 -0.182983,0.331034 -0.0865,0.189638 -0.158031,0.410882 -0.06987,0.221244 -0.118108,0.465776 -0.04658,0.244533 -0.06155,0.490729 l -0.347669,0.04325 z"
         style="font-style:normal;font-variant:normal;font-weight:bold;font-stretch:normal;font-size:6.81364393px;font-family:Gabriola;-inkscape-font-specification:'Gabriola Bold';font-variant-ligatures:normal;font-variant-caps:normal;font-variant-numeric:normal;font-feature-settings:normal;text-align:start;writing-mode:lr-tb;text-anchor:start;fill:#003399;stroke-width:0.39737996"
         id="path3733" />
      <path
         d="m 16.362446,26.355317 q 0,-0.131415 -0.04325,-0.227898 -0.04325,-0.09648 -0.113117,-0.158031 -0.06987,-0.06155 -0.158032,-0.09149 -0.08817,-0.02994 -0.176329,-0.02994 -0.118108,0 -0.199619,0.02495 -0.08151,0.02495 -0.133079,0.0682 -0.0499,0.04325 -0.07319,0.103136 -0.02163,0.05822 -0.02163,0.126425 0,0.07985 0.02828,0.161358 0.02994,0.07985 0.0865,0.156368 l -0.0067,0.0183 q -0.09482,0.04658 -0.191301,0.04658 -0.05656,0 -0.106463,-0.01664 -0.04824,-0.0183 -0.08484,-0.05157 -0.03493,-0.03327 -0.05656,-0.08151 -0.01996,-0.04824 -0.01996,-0.108126 0,-0.09815 0.04658,-0.184648 0.04824,-0.0865 0.126425,-0.158031 0.07818,-0.07153 0.18132,-0.128088 0.103137,-0.05656 0.212927,-0.09482 0.10979,-0.03992 0.21958,-0.05989 0.111454,-0.02163 0.206273,-0.02163 0.174666,0 0.297764,0.04658 0.124761,0.04658 0.201282,0.136406 0.07818,0.08816 0.113117,0.214589 0.0366,0.126425 0.0366,0.28612 0,0.10979 -0.01,0.241206 -0.0083,0.131415 -0.01996,0.276139 -0.01164,0.14306 -0.02163,0.296101 -0.0083,0.15304 -0.0083,0.304418 0,0.239542 0.08817,0.360976 0.08983,0.119772 0.234552,0.119772 0.128088,0 0.286119,-0.09482 l 0.04824,0.07153 q -0.111453,0.111453 -0.242869,0.169675 -0.131415,0.05822 -0.276139,0.05822 -0.108126,0 -0.199618,-0.0366 -0.09149,-0.0366 -0.158031,-0.108127 -0.06654,-0.07319 -0.103137,-0.182984 -0.0366,-0.10979 -0.0366,-0.254513 0,-0.04325 0.0017,-0.0865 0.0033,-0.04325 0.01165,-0.09149 h -0.01 q -0.07153,0.14306 -0.166349,0.282793 -0.09316,0.138069 -0.206272,0.247859 -0.111454,0.108127 -0.239543,0.174666 -0.126425,0.0682 -0.266158,0.0682 -0.11478,0 -0.209599,-0.03992 -0.09482,-0.03992 -0.163022,-0.10979 -0.06654,-0.06987 -0.104799,-0.164686 -0.0366,-0.09648 -0.0366,-0.209599 0,-0.146387 0.05323,-0.266158 0.0549,-0.119771 0.149714,-0.21459 0.09648,-0.09482 0.229562,-0.163022 0.133079,-0.06987 0.289446,-0.11478 0.156368,-0.04658 0.331034,-0.0682 0.174666,-0.02329 0.355987,-0.02329 0.01164,-0.1048 0.0183,-0.202946 0.0083,-0.09815 0.0083,-0.216253 z m -1.021381,1.142816 q 0,0.06488 0.01331,0.124761 0.01497,0.05822 0.04491,0.103137 0.03161,0.04491 0.07818,0.07153 0.04824,0.02495 0.114781,0.02495 0.07486,0 0.154704,-0.03493 0.07985,-0.03493 0.156368,-0.09648 0.07818,-0.06155 0.14805,-0.146387 0.07153,-0.0865 0.128089,-0.187974 0.05656,-0.101472 0.09316,-0.212926 0.03826,-0.113117 0.0499,-0.231225 -0.123098,0.0033 -0.244533,0.01664 -0.121435,0.01164 -0.231225,0.03826 -0.108126,0.02662 -0.201282,0.06987 -0.09316,0.04325 -0.161358,0.108127 -0.06654,0.06321 -0.1048,0.151377 -0.03826,0.0865 -0.03826,0.201282 z m 0.382602,-2.082686 q 0.116444,-0.159695 0.212927,-0.317726 0.09814,-0.159695 0.179656,-0.314399 0.08151,-0.154705 0.148051,-0.304419 0.06654,-0.151377 0.121434,-0.2961 l 0.07486,-0.01664 q 0.03161,0.03161 0.05656,0.06987 0.02662,0.03826 0.04325,0.07818 0.0183,0.03826 0.02828,0.07486 0.01,0.0366 0.01,0.06488 0,0.03992 -0.0366,0.10979 -0.03493,0.06987 -0.09648,0.159695 -0.05989,0.08817 -0.139733,0.189638 -0.07985,0.101472 -0.168013,0.202945 -0.0865,0.101473 -0.177993,0.199619 -0.09149,0.09648 -0.173002,0.174666 z"
         style="font-style:normal;font-variant:normal;font-weight:bold;font-stretch:normal;font-size:6.81364393px;font-family:Gabriola;-inkscape-font-specification:'Gabriola Bold';font-variant-ligatures:normal;font-variant-caps:normal;font-variant-numeric:normal;font-feature-settings:normal;text-align:start;writing-mode:lr-tb;text-anchor:start;fill:#003399;stroke-width:0.39737996"
         id="path3735" />
      <path
         d="m 17.719852,26.152372 q 0,-0.0682 -0.01,-0.114781 -0.01,-0.04658 -0.03161,-0.07319 -0.01996,-0.02828 -0.05157,-0.03992 -0.03161,-0.01165 -0.07486,-0.01165 -0.05988,0 -0.14306,0.01664 -0.08317,0.01664 -0.189637,0.04491 l -0.02495,-0.119771 q 0.118108,-0.04159 0.226235,-0.07486 0.10979,-0.03493 0.201282,-0.05989 0.09149,-0.02495 0.161358,-0.03826 0.06987,-0.01331 0.10979,-0.01331 0.09648,0 0.149714,0.05822 0.05489,0.05656 0.05489,0.196291 0,0.01664 -0.0033,0.07818 -0.0033,0.05989 -0.01,0.153041 -0.005,0.09315 -0.01331,0.21459 -0.0083,0.119771 -0.01996,0.256177 -0.01,0.136406 -0.02329,0.282793 -0.01331,0.144723 -0.02828,0.289447 l 0.01,0.0017 q 0.126425,-0.42918 0.271148,-0.723617 0.144724,-0.296101 0.294438,-0.479084 0.149714,-0.184647 0.297764,-0.266158 0.14805,-0.08151 0.282793,-0.08151 0.09315,0 0.179656,0.03493 0.0865,0.03493 0.153041,0.111454 0.0682,0.07652 0.108127,0.197955 0.03992,0.119771 0.03992,0.29111 0,0.0499 -0.0067,0.134743 -0.005,0.08317 -0.01331,0.18631 -0.0083,0.103136 -0.01996,0.21958 -0.01,0.114781 -0.0183,0.226235 -0.0083,0.111453 -0.01497,0.212926 -0.005,0.09981 -0.005,0.174666 0,0.129752 0.01,0.211263 0.01164,0.08151 0.0366,0.129752 0.02495,0.04658 0.06654,0.06488 0.04159,0.01663 0.101473,0.01663 0.0865,0 0.179656,-0.02329 0.09316,-0.02495 0.187974,-0.0682 l 0.03161,0.0865 q -0.05989,0.04824 -0.151378,0.09815 -0.09149,0.0499 -0.192964,0.09149 -0.09981,0.04159 -0.199619,0.06654 -0.09981,0.02661 -0.176329,0.02661 -0.08983,0 -0.141397,-0.04824 -0.05157,-0.04824 -0.07818,-0.131415 -0.02495,-0.08318 -0.03327,-0.194628 -0.0067,-0.111454 -0.0067,-0.239542 0,-0.156368 0.01,-0.321053 0.01165,-0.166349 0.02495,-0.316063 0.01331,-0.149714 0.02329,-0.271148 0.01164,-0.123098 0.01164,-0.196292 0,-0.194628 -0.07319,-0.28612 -0.07319,-0.09315 -0.194628,-0.09315 -0.09648,0 -0.202946,0.08151 -0.106463,0.08151 -0.212926,0.224571 -0.1048,0.141396 -0.202946,0.336024 -0.09648,0.192965 -0.174666,0.419199 -0.07818,0.224571 -0.129752,0.470767 -0.05157,0.246196 -0.06488,0.492392 l -0.347669,0.04325 -0.02662,-0.0017 q 0.01331,-0.158031 0.02495,-0.344342 0.01164,-0.18631 0.02163,-0.377611 0.01,-0.192965 0.01664,-0.380939 0.0083,-0.189637 0.01331,-0.352659 0.0067,-0.164685 0.0083,-0.294437 0.0033,-0.129752 0.0033,-0.204609 z"
         style="font-style:normal;font-variant:normal;font-weight:bold;font-stretch:normal;font-size:6.81364393px;font-family:Gabriola;-inkscape-font-specification:'Gabriola Bold';font-variant-ligatures:normal;font-variant-caps:normal;font-variant-numeric:normal;font-feature-settings:normal;text-align:start;writing-mode:lr-tb;text-anchor:start;fill:#003399;stroke-width:0.39737996"
         id="path3737" />
      <path
         d="m 23.119532,28.156874 q -0.334361,0 -0.613826,-0.116444 -0.279466,-0.116444 -0.482412,-0.346006 -0.201282,-0.229561 -0.314399,-0.570576 -0.111453,-0.342678 -0.111453,-0.795147 0,-0.28612 0.04658,-0.558931 0.04658,-0.272812 0.139733,-0.514018 0.09315,-0.242869 0.231225,-0.444151 0.138069,-0.202946 0.322716,-0.349332 0.184647,-0.146387 0.414209,-0.227898 0.229561,-0.08151 0.504036,-0.08151 0.334361,0 0.613827,0.116444 0.279466,0.116444 0.480748,0.346005 0.202945,0.229562 0.314399,0.57224 0.113117,0.342678 0.113117,0.793483 0,0.28612 -0.04658,0.558932 -0.04658,0.272812 -0.139733,0.515681 -0.09316,0.241206 -0.231225,0.444151 -0.13807,0.201282 -0.322717,0.347669 -0.184647,0.146387 -0.414208,0.227898 -0.229561,0.08151 -0.504037,0.08151 z m 0.07486,-0.216254 q 0.192965,0 0.350996,-0.06321 0.158031,-0.06321 0.281129,-0.177993 0.124762,-0.114781 0.216254,-0.277803 0.09149,-0.163021 0.149714,-0.36264 0.05989,-0.201282 0.08816,-0.432507 0.02994,-0.231224 0.02994,-0.485738 0,-0.452468 -0.08983,-0.785166 -0.08817,-0.334361 -0.241206,-0.552278 -0.153041,-0.21958 -0.357649,-0.326043 -0.202946,-0.108127 -0.432507,-0.108127 -0.192965,0 -0.350996,0.06321 -0.158031,0.06321 -0.282793,0.177993 -0.123098,0.114781 -0.21459,0.277802 -0.09149,0.163022 -0.151377,0.364304 -0.05822,0.199618 -0.08817,0.432507 -0.02828,0.231224 -0.02828,0.484074 0,0.452469 0.08817,0.78683 0.08983,0.332697 0.242869,0.552278 0.153041,0.217917 0.355986,0.326043 0.204609,0.106463 0.43417,0.106463 z"
         style="font-style:normal;font-variant:normal;font-weight:bold;font-stretch:normal;font-size:6.81364393px;font-family:Gabriola;-inkscape-font-specification:'Gabriola Bold';font-variant-ligatures:normal;font-variant-caps:normal;font-variant-numeric:normal;font-feature-settings:normal;text-align:start;writing-mode:lr-tb;text-anchor:start;fill:#003399;stroke-width:0.39737996"
         id="path3739" />
      <path
         d="m 26.01899,23.600582 q -0.03327,0.282793 -0.06654,0.580557 -0.03161,0.296101 -0.06155,0.600519 -0.02828,0.302755 -0.05323,0.608836 -0.02495,0.306082 -0.04325,0.603846 -0.0183,0.296101 -0.02828,0.582221 -0.01,0.28612 -0.01,0.548951 0,0.164685 0.0033,0.282793 0.005,0.118107 0.01331,0.199618 0.01,0.08151 0.02495,0.131415 0.01664,0.0499 0.03992,0.07652 0.02329,0.02662 0.0549,0.0366 0.03161,0.0083 0.07486,0.0083 0.07985,0 0.17134,-0.02329 0.09315,-0.02495 0.187974,-0.0682 l 0.03161,0.0865 q -0.05989,0.04824 -0.151377,0.09815 -0.08983,0.0499 -0.189638,0.09149 -0.09981,0.04159 -0.196291,0.06654 -0.09482,0.02661 -0.164686,0.02661 -0.08983,0 -0.14306,-0.04658 -0.05157,-0.04491 -0.07985,-0.148051 -0.02662,-0.103136 -0.03493,-0.267821 -0.0067,-0.166349 -0.0067,-0.404227 0,-0.0865 0.005,-0.246197 0.005,-0.161358 0.01331,-0.374284 0.01,-0.212927 0.02163,-0.465777 0.01164,-0.25285 0.02495,-0.522335 0.01331,-0.271148 0.02828,-0.545623 0.01497,-0.276139 0.02994,-0.532316 0.01497,-0.257841 0.02828,-0.485739 0.01331,-0.227897 0.02495,-0.402564 0.0017,-0.03992 0.02329,-0.0682 0.02163,-0.02994 0.05489,-0.04658 0.03493,-0.0183 0.07652,-0.02662 0.04325,-0.0083 0.0865,-0.0083 0.09981,0 0.2096,0.05323 z"
         style="font-style:normal;font-variant:normal;font-weight:bold;font-stretch:normal;font-size:6.81364393px;font-family:Gabriola;-inkscape-font-specification:'Gabriola Bold';font-variant-ligatures:normal;font-variant-caps:normal;font-variant-numeric:normal;font-feature-settings:normal;text-align:start;writing-mode:lr-tb;text-anchor:start;fill:#003399;stroke-width:0.39737996"
         id="path3741" />
      <path
         d="m 27.033717,24.972959 q -0.05822,0 -0.103136,-0.02329 -0.04491,-0.02495 -0.07652,-0.06321 -0.03161,-0.03992 -0.04824,-0.08983 -0.01664,-0.05157 -0.01664,-0.104799 0,-0.07486 0.02495,-0.131416 0.02495,-0.05822 0.06488,-0.09648 0.03992,-0.03992 0.08816,-0.05822 0.04824,-0.01996 0.09482,-0.01996 0.05656,0 0.101473,0.02163 0.04491,0.01996 0.07652,0.05656 0.03327,0.0366 0.0499,0.08484 0.0183,0.04658 0.0183,0.101473 0,0.05822 -0.01996,0.116444 -0.01996,0.05656 -0.05656,0.103136 -0.03493,0.04658 -0.0865,0.07486 -0.0499,0.02828 -0.111453,0.02828 z m 0.144723,0.751896 q -0.02828,0.189638 -0.04824,0.380939 -0.01996,0.189638 -0.03327,0.367631 -0.01164,0.177993 -0.0183,0.337688 -0.005,0.158031 -0.005,0.286119 0,0.173003 0.005,0.297765 0.005,0.123098 0.01663,0.207936 0.01164,0.08484 0.02828,0.136405 0.0183,0.0499 0.04325,0.07818 0.02662,0.02662 0.05988,0.03493 0.03493,0.0083 0.07818,0.0083 0.07985,0 0.171339,-0.02329 0.09316,-0.02495 0.187975,-0.0682 l 0.03161,0.0865 q -0.05989,0.04824 -0.151378,0.09815 -0.08983,0.0499 -0.189637,0.09149 -0.09981,0.04159 -0.196292,0.06654 -0.09482,0.02661 -0.164685,0.02661 -0.04658,0 -0.08484,-0.0083 -0.03826,-0.0067 -0.06987,-0.0366 -0.02994,-0.02994 -0.0549,-0.08817 -0.02329,-0.05822 -0.03992,-0.158031 -0.01497,-0.09981 -0.02329,-0.249523 -0.0083,-0.149714 -0.0083,-0.36264 0,-0.124762 0.0017,-0.28113 0.0033,-0.158031 0.0083,-0.337687 0.005,-0.181321 0.01331,-0.380939 0.0083,-0.201282 0.02163,-0.414208 0.0033,-0.04658 0.02495,-0.07486 0.02163,-0.02994 0.05323,-0.04491 0.03161,-0.01664 0.06654,-0.02163 0.0366,-0.0067 0.06654,-0.0067 0.111453,0 0.209599,0.05157 z"
         style="font-style:normal;font-variant:normal;font-weight:bold;font-stretch:normal;font-size:6.81364393px;font-family:Gabriola;-inkscape-font-specification:'Gabriola Bold';font-variant-ligatures:normal;font-variant-caps:normal;font-variant-numeric:normal;font-feature-settings:normal;text-align:start;writing-mode:lr-tb;text-anchor:start;fill:#003399;stroke-width:0.39737996"
         id="path3743" />
      <path
         d="m 28.359516,28.123604 q -0.02163,-0.159695 -0.05157,-0.334361 -0.02994,-0.17633 -0.06488,-0.354323 -0.03327,-0.179656 -0.07153,-0.354322 -0.0366,-0.174667 -0.07486,-0.332698 -0.0366,-0.158031 -0.07153,-0.29111 -0.03493,-0.133079 -0.06488,-0.229561 -0.03161,-0.09815 -0.05989,-0.159695 -0.02828,-0.06321 -0.05989,-0.09815 -0.02994,-0.0366 -0.06654,-0.0499 -0.0366,-0.01331 -0.08317,-0.01331 -0.05323,0 -0.114781,0.01164 -0.05989,0.01164 -0.144723,0.03161 l -0.02495,-0.119771 q 0.09981,-0.0366 0.194628,-0.06654 0.09648,-0.03161 0.177993,-0.05323 0.08151,-0.02163 0.144723,-0.03327 0.06321,-0.01164 0.09981,-0.01164 0.04491,0 0.08151,0.01664 0.03826,0.01497 0.07319,0.05323 0.03493,0.03826 0.06654,0.1048 0.03161,0.06488 0.06321,0.164685 0.02163,0.06654 0.0499,0.173003 0.02994,0.1048 0.06155,0.239542 0.03161,0.134743 0.06488,0.292774 0.03493,0.156368 0.06654,0.32438 0.03161,0.168012 0.05822,0.342678 0.02828,0.173003 0.04824,0.341015 0.08318,-0.121434 0.166349,-0.251186 0.08484,-0.129752 0.161358,-0.262831 0.07818,-0.133079 0.144724,-0.267822 0.06654,-0.136406 0.116444,-0.269485 0.0499,-0.133079 0.07818,-0.261167 0.02828,-0.128089 0.02828,-0.24786 0,-0.149714 -0.05323,-0.281129 -0.05157,-0.131416 -0.177993,-0.231225 l 0.0183,-0.03992 q 0.02994,-0.0033 0.05822,-0.005 0.02828,-0.0017 0.05489,-0.0017 0.222907,0 0.336024,0.1048 0.113117,0.1048 0.113117,0.29111 0,0.141397 -0.05989,0.322717 -0.05989,0.179656 -0.158032,0.377611 -0.09814,0.197955 -0.222907,0.404228 -0.124761,0.204609 -0.254513,0.39591 -0.129752,0.191301 -0.252851,0.359313 -0.123098,0.166349 -0.217916,0.287783 z"
         style="font-style:normal;font-variant:normal;font-weight:bold;font-stretch:normal;font-size:6.81364393px;font-family:Gabriola;-inkscape-font-specification:'Gabriola Bold';font-variant-ligatures:normal;font-variant-caps:normal;font-variant-numeric:normal;font-feature-settings:normal;text-align:start;writing-mode:lr-tb;text-anchor:start;fill:#003399;stroke-width:0.39737996"
         id="path3745" />
      <path
         d="m 31.293909,26.355317 q 0,-0.131415 -0.04325,-0.227898 -0.04325,-0.09648 -0.113117,-0.158031 -0.06987,-0.06155 -0.158031,-0.09149 -0.08817,-0.02994 -0.17633,-0.02994 -0.118108,0 -0.199619,0.02495 -0.08151,0.02495 -0.133079,0.0682 -0.0499,0.04325 -0.07319,0.103136 -0.02163,0.05822 -0.02163,0.126425 0,0.07985 0.02828,0.161358 0.02994,0.07985 0.0865,0.156368 l -0.0067,0.0183 q -0.09482,0.04658 -0.191301,0.04658 -0.05656,0 -0.106463,-0.01664 -0.04824,-0.0183 -0.08484,-0.05157 -0.03493,-0.03327 -0.05656,-0.08151 -0.01996,-0.04824 -0.01996,-0.108126 0,-0.09815 0.04658,-0.184648 0.04824,-0.0865 0.126425,-0.158031 0.07818,-0.07153 0.18132,-0.128088 0.103136,-0.05656 0.212926,-0.09482 0.10979,-0.03992 0.21958,-0.05989 0.111454,-0.02163 0.206273,-0.02163 0.174666,0 0.297764,0.04658 0.124762,0.04658 0.201282,0.136406 0.07818,0.08816 0.113117,0.214589 0.0366,0.126425 0.0366,0.28612 0,0.10979 -0.01,0.241206 -0.0083,0.131415 -0.01996,0.276139 -0.01164,0.14306 -0.02163,0.296101 -0.0083,0.15304 -0.0083,0.304418 0,0.239542 0.08817,0.360976 0.08983,0.119772 0.234552,0.119772 0.128088,0 0.28612,-0.09482 l 0.04824,0.07153 q -0.111454,0.111453 -0.242869,0.169675 -0.131416,0.05822 -0.276139,0.05822 -0.108127,0 -0.199619,-0.0366 -0.09149,-0.0366 -0.158031,-0.108127 -0.06654,-0.07319 -0.103136,-0.182984 -0.0366,-0.10979 -0.0366,-0.254513 0,-0.04325 0.0017,-0.0865 0.0033,-0.04325 0.01164,-0.09149 h -0.01 q -0.07153,0.14306 -0.166349,0.282793 -0.09315,0.138069 -0.206272,0.247859 -0.111454,0.108127 -0.239542,0.174666 -0.126425,0.0682 -0.266158,0.0682 -0.114781,0 -0.2096,-0.03992 -0.09482,-0.03992 -0.163021,-0.10979 -0.06654,-0.06987 -0.1048,-0.164686 -0.0366,-0.09648 -0.0366,-0.209599 0,-0.146387 0.05323,-0.266158 0.0549,-0.119771 0.149714,-0.21459 0.09648,-0.09482 0.229561,-0.163022 0.133079,-0.06987 0.289447,-0.11478 0.156367,-0.04658 0.331034,-0.0682 0.174666,-0.02329 0.355986,-0.02329 0.01164,-0.1048 0.0183,-0.202946 0.0083,-0.09815 0.0083,-0.216253 z m -1.021382,1.142816 q 0,0.06488 0.01331,0.124761 0.01497,0.05822 0.04491,0.103137 0.03161,0.04491 0.07818,0.07153 0.04824,0.02495 0.114781,0.02495 0.07486,0 0.154704,-0.03493 0.07985,-0.03493 0.156368,-0.09648 0.07818,-0.06155 0.148051,-0.146387 0.07153,-0.0865 0.128088,-0.187974 0.05656,-0.101472 0.09315,-0.212926 0.03826,-0.113117 0.0499,-0.231225 -0.123098,0.0033 -0.244533,0.01664 -0.121434,0.01164 -0.231224,0.03826 -0.108127,0.02662 -0.201282,0.06987 -0.09316,0.04325 -0.161359,0.108127 -0.06654,0.06321 -0.104799,0.151377 -0.03826,0.0865 -0.03826,0.201282 z"
         style="font-style:normal;font-variant:normal;font-weight:bold;font-stretch:normal;font-size:6.81364393px;font-family:Gabriola;-inkscape-font-specification:'Gabriola Bold';font-variant-ligatures:normal;font-variant-caps:normal;font-variant-numeric:normal;font-feature-settings:normal;text-align:start;writing-mode:lr-tb;text-anchor:start;fill:#003399;stroke-width:0.39737996"
         id="path3747" />
    </g>
  </g>
</svg>
